<svg xmlns="http://www.w3.org/2000/svg" viewBox="0 0 69.54 73.65"><defs><style>.cls-1{fill:#0c5cea;}</style></defs><title>资源 1</title><g id="图层_2" data-name="图层 2"><g id="图层_1-2" data-name="图层 1"><path class="cls-1" d="M25.74,15a3.86,3.86,0,0,1-2.12-.65,3.79,3.79,0,0,1-1.51-2.09L20,5.19A3.78,3.78,0,1,1,27.25,3.1l2.12,7.09a3.78,3.78,0,0,1-2.59,4.69A3.68,3.68,0,0,1,25.74,15Z"/><path class="cls-1" d="M36.08,73.65A27.54,27.54,0,1,1,53.5,24.81a3.92,3.92,0,0,1-5,6.06,19.7,19.7,0,1,0,0,30.5,3.9,3.9,0,0,1,5.25.26,4,4,0,0,1,1.15,3,3.92,3.92,0,0,1-1.42,2.82,27.52,27.52,0,0,1-17.41,6.22h0Z"/><path class="cls-1" d="M9.5,25a3.78,3.78,0,0,1-2.42-.89l-5.72-4.7A3.78,3.78,0,1,1,6.21,13.6l5.72,4.69A3.79,3.79,0,0,1,9.5,25Z"/><path class="cls-1" d="M43.74,38.26a11.1,11.1,0,0,0-10.83-2.85,5.49,5.49,0,0,1-7.75,7.79,11.11,11.11,0,1,0,18.58-4.94Z"/><path class="cls-1" d="M44.13,14.56a3.86,3.86,0,0,1-1.29-.23,3.8,3.8,0,0,1-2.26-2.26h0a3.84,3.84,0,0,1,0-2.59L43,2.5A3.79,3.79,0,0,1,47.89.23a3.81,3.81,0,0,1,2.13,2,3.72,3.72,0,0,1,.12,2.89l-2.45,7a3.79,3.79,0,0,1-2,2.14A3.74,3.74,0,0,1,44.13,14.56Z"/><path class="cls-1" d="M60.14,22.72a3.77,3.77,0,0,1-3.72-4.44h0a3.72,3.72,0,0,1,1.29-2.23l5.62-4.82A3.78,3.78,0,1,1,68.2,17l-5.62,4.82A3.79,3.79,0,0,1,60.14,22.72Z"/></g></g></svg>